<?xml version="1.0" encoding="utf-8"?>
<!-- Generator: Adobe Illustrator 27.3.1, SVG Export Plug-In . SVG Version: 6.00 Build 0)  -->
<svg version="1.1" id="Layer_1" xmlns="http://www.w3.org/2000/svg" xmlns:xlink="http://www.w3.org/1999/xlink" x="0px" y="0px"
	 viewBox="0 0 1417.32 1288.32" style="enable-background:new 0 0 1417.32 1288.32;" xml:space="preserve">
<style type="text/css">
	.st0{fill:#F4A823;}
</style>
<g>
	<g>
		<path class="st0" d="M0,13.73l293.61,282.36L138.78,498.87l246.88,170.36l177.37-192.05L425.04,366.32L708.22,19.78L991.4,366.31
			L853.27,477.16l177.49,192.05l246.92-170.31l-154.84-202.79l294.49-283.23v586.77L982.77,903.02c0,0-135.04-60.15-274.43-354.74
			c0,0-123.24,278.82-274.24,354.37l-433.04-298L0,13.73z"/>
		<path class="st0" d="M708.66,775.31l46.04,84.18c27.67,50.59,69.26,92.18,119.84,119.84l84.18,46.04l-84.18,46.04
			c-50.59,27.67-92.18,69.26-119.84,119.84l-46.04,84.18l-46.04-84.18c-27.67-50.59-69.26-92.18-119.84-119.84l-84.18-46.04
			l84.18-46.04c50.59-27.67,92.18-69.26,119.84-119.84L708.66,775.31z"/>
	</g>
</g>
</svg>
